<?xml version="1.0" encoding="UTF-8"?>
<!DOCTYPE svg PUBLIC "-//W3C//DTD SVG 1.1//EN" "http://www.w3.org/Graphics/SVG/1.1/DTD/svg11.dtd">
<svg xmlns="http://www.w3.org/2000/svg" version="1.1" width="167px" height="401px" style="shape-rendering:geometricPrecision; text-rendering:geometricPrecision; image-rendering:optimizeQuality; fill-rule:evenodd; clip-rule:evenodd" xmlns:xlink="http://www.w3.org/1999/xlink">
<g><path style="opacity:0.694" fill="#361916" d="M 89.5,34.5 C 85.3951,34.2338 81.3951,34.7338 77.5,36C 76.8366,37.5185 75.8366,38.6851 74.5,39.5C 75.8117,34.9041 78.9784,32.5708 84,32.5C 86.0299,32.9537 87.8632,33.6204 89.5,34.5 Z"/></g>
<g><path style="opacity:0.216" fill="#26110e" d="M 89.5,34.5 C 91.3797,34.2291 92.713,34.8958 93.5,36.5C 91.847,36.3404 90.5137,35.6737 89.5,34.5 Z"/></g>
<g><path style="opacity:1" fill="#491b14" d="M 93.5,36.5 C 97.5977,37.2719 100.931,39.2719 103.5,42.5C 103.167,42.5 102.833,42.5 102.5,42.5C 99.5017,40.513 96.5017,38.513 93.5,36.5 Z"/></g>
<g><path style="opacity:1" fill="#6b2b20" d="M 72.5,39.5 C 67.3635,39.3687 63.8635,41.7021 62,46.5C 59.9843,51.9883 59.151,57.655 59.5,63.5C 58.8389,61.866 58.5056,60.0326 58.5,58C 58.8566,53.7704 59.5232,49.6037 60.5,45.5C 62.7368,39.7146 66.7368,37.7146 72.5,39.5 Z"/></g>
<g><path style="opacity:1" fill="#8b3523" d="M 89.5,34.5 C 90.5137,35.6737 91.847,36.3404 93.5,36.5C 96.5017,38.513 99.5017,40.513 102.5,42.5C 102.719,43.675 102.386,44.675 101.5,45.5C 99.802,44.3192 98.1353,44.3192 96.5,45.5C 101.882,51.4105 101.549,52.4105 95.5,48.5C 94.8519,51.1322 95.6853,53.4655 98,55.5C 97.899,60.0966 99.2323,64.0966 102,67.5C 102.606,70.43 103.44,73.2633 104.5,76C 103.584,76.2784 102.918,76.7784 102.5,77.5C 101.833,77.5 101.167,77.5 100.5,77.5C 100.611,76.8826 100.944,76.3826 101.5,76C 100.207,73.9481 99.2071,71.7814 98.5,69.5C 97.1581,67.6391 96.1581,65.6391 95.5,63.5C 95.5299,62.5028 95.0299,61.8361 94,61.5C 92.1178,62.606 90.2844,62.606 88.5,61.5C 89.7287,60.7189 91.062,60.2189 92.5,60C 93.4027,51.3728 89.4027,46.5394 80.5,45.5C 76.4717,45.5626 73.3051,47.2293 71,50.5C 69.5128,55.7539 68.3461,61.0873 67.5,66.5C 66.3128,68.7402 65.6462,71.2402 65.5,74C 65.6083,75.6811 66.2749,76.8478 67.5,77.5C 67.2606,79.4672 67.5939,81.3005 68.5,83C 67.2068,83.49 65.8734,83.6567 64.5,83.5C 63.5,83.5 62.5,83.5 61.5,83.5C 60.2008,76.9198 59.5342,70.2531 59.5,63.5C 59.151,57.655 59.9843,51.9883 62,46.5C 63.8635,41.7021 67.3635,39.3687 72.5,39.5C 73.1667,39.5 73.8333,39.5 74.5,39.5C 75.8366,38.6851 76.8366,37.5185 77.5,36C 81.3951,34.7338 85.3951,34.2338 89.5,34.5 Z"/></g>
<g><path style="opacity:0.799" fill="#36130d" d="M 60.5,45.5 C 59.5232,49.6037 58.8566,53.7704 58.5,58C 58.5056,60.0326 58.8389,61.866 59.5,63.5C 59.5342,70.2531 60.2008,76.9198 61.5,83.5C 62.5,83.5 63.5,83.5 64.5,83.5C 65.7731,87.4485 68.4397,89.4485 72.5,89.5C 67.0017,90.6708 62.8351,88.6708 60,83.5C 58.3413,75.4189 57.1746,67.2523 56.5,59C 57.0016,54.141 58.3349,49.641 60.5,45.5 Z"/></g>
<g><path style="opacity:0.584" fill="#32110b" d="M 108.5,48.5 C 110.83,51.8702 112.163,55.7036 112.5,60C 112.355,60.772 112.022,61.4387 111.5,62C 113.79,63.7772 115.457,65.9438 116.5,68.5C 114.537,67.0401 112.704,65.3734 111,63.5C 110.71,58.3677 109.876,53.3677 108.5,48.5 Z"/></g>
<g><path style="opacity:1" fill="#402a1c" d="M 90.5,65.5 C 92.1992,65.3398 93.8659,65.5065 95.5,66C 94.2396,67.113 93.073,67.2797 92,66.5C 91.3828,67.4491 91.5494,68.2825 92.5,69C 90.8486,68.8803 89.5152,68.047 88.5,66.5C 89.1667,66.1667 89.8333,65.8333 90.5,65.5 Z"/></g>
<g><path style="opacity:1" fill="#9b7e6d" d="M 95.5,63.5 C 96.1581,65.6391 97.1581,67.6391 98.5,69.5C 95.9039,70.2653 93.2372,70.5987 90.5,70.5C 89.548,69.548 88.548,68.548 87.5,67.5C 87.6236,66.8933 87.9569,66.56 88.5,66.5C 89.5152,68.047 90.8486,68.8803 92.5,69C 91.5494,68.2825 91.3828,67.4491 92,66.5C 93.073,67.2797 94.2396,67.113 95.5,66C 93.8659,65.5065 92.1992,65.3398 90.5,65.5C 92.1667,64.8333 93.8333,64.1667 95.5,63.5 Z"/></g>
<g><path style="opacity:1" fill="#7b2b1b" d="M 102.5,42.5 C 102.833,42.5 103.167,42.5 103.5,42.5C 105.914,43.9108 107.581,45.9108 108.5,48.5C 109.876,53.3677 110.71,58.3677 111,63.5C 112.704,65.3734 114.537,67.0401 116.5,68.5C 116.216,70.4147 116.549,72.0813 117.5,73.5C 117.663,75.8568 117.497,78.1902 117,80.5C 115.97,82.7764 114.47,83.4431 112.5,82.5C 115.168,81.485 115.834,79.8183 114.5,77.5C 110.541,78.4025 106.541,78.4025 102.5,77.5C 102.918,76.7784 103.584,76.2784 104.5,76C 103.44,73.2633 102.606,70.43 102,67.5C 99.2323,64.0966 97.899,60.0966 98,55.5C 95.6853,53.4655 94.8519,51.1322 95.5,48.5C 101.549,52.4105 101.882,51.4105 96.5,45.5C 98.1353,44.3192 99.802,44.3192 101.5,45.5C 102.386,44.675 102.719,43.675 102.5,42.5 Z"/></g>
<g><path style="opacity:1" fill="#f4cda6" d="M 95.5,63.5 C 93.8333,64.1667 92.1667,64.8333 90.5,65.5C 89.8333,65.8333 89.1667,66.1667 88.5,66.5C 87.9569,66.56 87.6236,66.8933 87.5,67.5C 88.548,68.548 89.548,69.548 90.5,70.5C 88.9808,73.0205 87.3141,75.5205 85.5,78C 82.854,78.4974 80.1873,78.6641 77.5,78.5C 77.6816,76.4086 77.3482,74.4086 76.5,72.5C 73.8434,71.7408 71.1767,71.0742 68.5,70.5C 67.5713,69.3112 67.238,67.9778 67.5,66.5C 68.3461,61.0873 69.5128,55.7539 71,50.5C 73.3051,47.2293 76.4717,45.5626 80.5,45.5C 89.4027,46.5394 93.4027,51.3728 92.5,60C 91.062,60.2189 89.7287,60.7189 88.5,61.5C 90.2844,62.606 92.1178,62.606 94,61.5C 95.0299,61.8361 95.5299,62.5028 95.5,63.5 Z"/></g>
<g><path style="opacity:1" fill="#ac947f" d="M 78.5,67.5 C 78.9382,67.4346 79.2716,67.6012 79.5,68C 77.9379,69.3781 76.1045,70.2114 74,70.5C 71.9919,70.6932 70.4919,70.0265 69.5,68.5C 71.1873,67.2742 72.6873,67.6076 74,69.5C 75.7215,69.3893 75.8882,68.8893 74.5,68C 75.7932,67.51 77.1266,67.3433 78.5,67.5 Z"/></g>
<g><path style="opacity:1" fill="#4c3525" d="M 78.5,67.5 C 77.1266,67.3433 75.7932,67.51 74.5,68C 75.8882,68.8893 75.7215,69.3893 74,69.5C 72.6873,67.6076 71.1873,67.2742 69.5,68.5C 69.1961,67.8501 68.8627,67.1835 68.5,66.5C 71.4459,65.3452 74.4459,65.1786 77.5,66C 78.056,66.3826 78.3893,66.8826 78.5,67.5 Z"/></g>
<g><path style="opacity:1" fill="#744a2e" d="M 69.5,61.5 C 72.5082,60.0793 75.5082,60.2459 78.5,62C 75.4929,62.3013 72.4929,62.1346 69.5,61.5 Z"/></g>
<g><path style="opacity:1" fill="#f6c19d" d="M 67.5,66.5 C 67.238,67.9778 67.5713,69.3112 68.5,70.5C 71.1767,71.0742 73.8434,71.7408 76.5,72.5C 77.3482,74.4086 77.6816,76.4086 77.5,78.5C 80.1873,78.6641 82.854,78.4974 85.5,78C 87.3141,75.5205 88.9808,73.0205 90.5,70.5C 93.2372,70.5987 95.9039,70.2653 98.5,69.5C 99.2071,71.7814 100.207,73.9481 101.5,76C 100.944,76.3826 100.611,76.8826 100.5,77.5C 98.241,81.0996 95.5743,84.433 92.5,87.5C 92.7778,85.6536 92.1112,84.3202 90.5,83.5C 89.3777,84.6302 88.0443,85.2969 86.5,85.5C 87.9599,83.5372 89.6266,81.7038 91.5,80C 85.8333,79.3333 80.1667,79.3333 74.5,80C 76.3237,80.66 77.657,81.8267 78.5,83.5C 76.4496,83.0388 74.4496,82.3721 72.5,81.5C 71.7025,81.9569 71.3691,82.6236 71.5,83.5C 69.3101,82.0252 67.9767,80.0252 67.5,77.5C 66.2749,76.8478 65.6083,75.6811 65.5,74C 65.6462,71.2402 66.3128,68.7402 67.5,66.5 Z"/></g>
<g><path style="opacity:0.671" fill="#2e120d" d="M 116.5,68.5 C 120.394,72.8029 121.06,77.4695 118.5,82.5C 118.81,79.2869 118.477,76.2869 117.5,73.5C 116.549,72.0813 116.216,70.4147 116.5,68.5 Z"/></g>
<g><path style="opacity:1" fill="#e19e95" d="M 86.5,85.5 C 84.1432,85.6633 81.8098,85.4966 79.5,85C 78.944,84.6174 78.6107,84.1174 78.5,83.5C 77.657,81.8267 76.3237,80.66 74.5,80C 80.1667,79.3333 85.8333,79.3333 91.5,80C 89.6266,81.7038 87.9599,83.5372 86.5,85.5 Z"/></g>
<g><path style="opacity:1" fill="#fde1e5" d="M 79.5,82.5 C 81.9664,81.3659 84.633,81.1993 87.5,82C 84.9543,83.8116 82.2877,83.9783 79.5,82.5 Z"/></g>
<g><path style="opacity:1" fill="#6e2517" d="M 117.5,73.5 C 118.477,76.2869 118.81,79.2869 118.5,82.5C 118.5,82.8333 118.5,83.1667 118.5,83.5C 116.616,85.5718 114.949,87.9052 113.5,90.5C 113.5,91.1667 113.167,91.5 112.5,91.5C 111.833,91.8333 111.167,92.1667 110.5,92.5C 107.743,93.5122 105.076,94.5122 102.5,95.5C 99.4007,95.9077 97.0674,94.741 95.5,92C 94.552,91.5172 93.552,91.3505 92.5,91.5C 92.5,90.1667 92.5,88.8333 92.5,87.5C 95.5743,84.433 98.241,81.0996 100.5,77.5C 101.167,77.5 101.833,77.5 102.5,77.5C 106.541,78.4025 110.541,78.4025 114.5,77.5C 115.834,79.8183 115.168,81.485 112.5,82.5C 114.47,83.4431 115.97,82.7764 117,80.5C 117.497,78.1902 117.663,75.8568 117.5,73.5 Z"/></g>
<g><path style="opacity:1" fill="#814230" d="M 67.5,77.5 C 67.9767,80.0252 69.3101,82.0252 71.5,83.5C 73.385,85.0532 74.385,87.0532 74.5,89.5C 74.1667,89.5 73.8333,89.5 73.5,89.5C 73.1667,89.5 72.8333,89.5 72.5,89.5C 68.4397,89.4485 65.7731,87.4485 64.5,83.5C 65.8734,83.6567 67.2068,83.49 68.5,83C 67.5939,81.3005 67.2606,79.4672 67.5,77.5 Z"/></g>
<g><path style="opacity:0.365" fill="#240c06" d="M 118.5,83.5 C 118.06,86.7136 116.394,89.047 113.5,90.5C 114.949,87.9052 116.616,85.5718 118.5,83.5 Z"/></g>
<g><path style="opacity:0.055" fill="#120f0d" d="M 73.5,89.5 C 73.8333,89.5 74.1667,89.5 74.5,89.5C 74.6159,92.8599 74.9492,96.1933 75.5,99.5C 73.8255,96.4928 73.1588,93.1595 73.5,89.5 Z"/></g>
<g><path style="opacity:0.878" fill="#9c6e66" d="M 110.5,92.5 C 109.738,94.2624 108.404,95.2624 106.5,95.5C 105.167,95.5 103.833,95.5 102.5,95.5C 105.076,94.5122 107.743,93.5122 110.5,92.5 Z"/></g>
<g><path style="opacity:0.122" fill="#220c0b" d="M 112.5,91.5 C 110.919,96.2321 107.585,98.3987 102.5,98C 103.737,98.2321 104.737,98.7321 105.5,99.5C 103.139,99.3259 100.806,98.9926 98.5,98.5C 98.5,102.167 98.5,105.833 98.5,109.5C 95.3511,109.585 92.6845,108.585 90.5,106.5C 92.677,106.586 94.677,107.253 96.5,108.5C 96.9938,104.235 97.9938,100.235 99.5,96.5C 102.059,96.8016 104.393,96.4682 106.5,95.5C 108.404,95.2624 109.738,94.2624 110.5,92.5C 111.167,92.1667 111.833,91.8333 112.5,91.5 Z"/></g>
<g><path style="opacity:0.961" fill="#45211d" d="M 92.5,91.5 C 93.552,91.3505 94.552,91.5172 95.5,92C 97.0674,94.741 99.4007,95.9077 102.5,95.5C 103.833,95.5 105.167,95.5 106.5,95.5C 104.393,96.4682 102.059,96.8016 99.5,96.5C 97.264,95.6109 95.264,94.2776 93.5,92.5C 92.6816,95.1071 92.1816,97.7737 92,100.5C 91.6174,101.056 91.1174,101.389 90.5,101.5C 91.0101,98.0172 91.6768,94.6838 92.5,91.5 Z"/></g>
<g><path style="opacity:1" fill="#eec9a2" d="M 78.5,83.5 C 78.6107,84.1174 78.944,84.6174 79.5,85C 81.8098,85.4966 84.1432,85.6633 86.5,85.5C 88.0443,85.2969 89.3777,84.6302 90.5,83.5C 92.1112,84.3202 92.7778,85.6536 92.5,87.5C 92.5,88.8333 92.5,90.1667 92.5,91.5C 91.6768,94.6838 91.0101,98.0172 90.5,101.5C 88.7376,102.262 87.7376,103.596 87.5,105.5C 85.4513,106.641 83.4513,106.641 81.5,105.5C 80.2402,103.633 78.5735,102.3 76.5,101.5C 75.6618,101.158 75.3284,100.492 75.5,99.5C 74.9492,96.1933 74.6159,92.8599 74.5,89.5C 74.385,87.0532 73.385,85.0532 71.5,83.5C 71.3691,82.6236 71.7025,81.9569 72.5,81.5C 74.4496,82.3721 76.4496,83.0388 78.5,83.5 Z"/></g>
<g><path style="opacity:0.251" fill="#291413" d="M 70.5,108.5 C 70.5,108.833 70.5,109.167 70.5,109.5C 69.8333,109.5 69.1667,109.5 68.5,109.5C 68.5,106.167 68.5,102.833 68.5,99.5C 67.5,99.5 66.5,99.5 65.5,99.5C 66.5203,98.0462 67.687,97.7129 69,98.5C 69.1787,102.025 69.6787,105.359 70.5,108.5 Z"/></g>
<g><path style="opacity:0.2" fill="#331515" d="M 114.5,101.5 C 116.38,101.229 117.713,101.896 118.5,103.5C 116.847,103.34 115.514,102.674 114.5,101.5 Z"/></g>
<g><path style="opacity:0.635" fill="#59211f" d="M 59.5,101.5 C 56.855,103.31 53.855,104.31 50.5,104.5C 53.0836,102.528 56.0836,101.528 59.5,101.5 Z"/></g>
<g><path style="opacity:0.012" fill="#2a1311" d="M 118.5,103.5 C 120.833,103.833 122.167,105.167 122.5,107.5C 120.833,106.5 119.5,105.167 118.5,103.5 Z"/></g>
<g><path style="opacity:0.812" fill="#8e2f2c" d="M 65.5,99.5 C 66.5,99.5 67.5,99.5 68.5,99.5C 68.5,102.833 68.5,106.167 68.5,109.5C 67.5233,106.713 67.19,103.713 67.5,100.5C 64.8333,100.833 62.1667,101.167 59.5,101.5C 61.2143,100.262 63.2143,99.595 65.5,99.5 Z"/></g>
<g><path style="opacity:0.596" fill="#4c1f1e" d="M 50.5,104.5 C 49.5,106.167 48.1667,107.5 46.5,108.5C 46.8333,106.167 48.1667,104.833 50.5,104.5 Z"/></g>
<g><path style="opacity:0.302" fill="#411a19" d="M 122.5,107.5 C 124.587,108.585 125.92,110.251 126.5,112.5C 124.413,111.415 123.08,109.749 122.5,107.5 Z"/></g>
<g><path style="opacity:0.4" fill="#421c1a" d="M 126.5,112.5 C 127.906,112.973 128.573,113.973 128.5,115.5C 127.094,115.027 126.427,114.027 126.5,112.5 Z"/></g>
<g><path style="opacity:0.42" fill="#411b1a" d="M 46.5,108.5 C 46.4349,111.428 45.7682,114.095 44.5,116.5C 44.2938,113.505 44.9605,110.838 46.5,108.5 Z"/></g>
<g><path style="opacity:0.349" fill="#3e1a18" d="M 128.5,115.5 C 129.906,115.973 130.573,116.973 130.5,118.5C 129.094,118.027 128.427,117.027 128.5,115.5 Z"/></g>
<g><path style="opacity:0.922" fill="#742c27" d="M 130.5,118.5 C 132.25,119.659 133.25,121.326 133.5,123.5C 130.916,122.952 129.916,121.285 130.5,118.5 Z"/></g>
<g><path style="opacity:0.4" fill="#3f1815" d="M 133.5,123.5 C 134.906,123.973 135.573,124.973 135.5,126.5C 134.094,126.027 133.427,125.027 133.5,123.5 Z"/></g>
<g><path style="opacity:0.439" fill="#3c1715" d="M 135.5,126.5 C 137.262,127.262 138.262,128.596 138.5,130.5C 136.738,129.738 135.738,128.404 135.5,126.5 Z"/></g>
<g><path style="opacity:0.22" fill="#28100d" d="M 138.5,130.5 C 139.906,130.973 140.573,131.973 140.5,133.5C 139.094,133.027 138.427,132.027 138.5,130.5 Z"/></g>
<g><path style="opacity:0.306" fill="#341311" d="M 140.5,133.5 C 141.906,133.973 142.573,134.973 142.5,136.5C 141.094,136.027 140.427,135.027 140.5,133.5 Z"/></g>
<g><path style="opacity:0.373" fill="#3b1614" d="M 142.5,136.5 C 143.906,136.973 144.573,137.973 144.5,139.5C 143.094,139.027 142.427,138.027 142.5,136.5 Z"/></g>
<g><path style="opacity:0.451" fill="#3e1715" d="M 144.5,139.5 C 146.262,140.262 147.262,141.596 147.5,143.5C 145.738,142.738 144.738,141.404 144.5,139.5 Z"/></g>
<g><path style="opacity:0.298" fill="#301311" d="M 147.5,143.5 C 148.906,143.973 149.573,144.973 149.5,146.5C 148.094,146.027 147.427,145.027 147.5,143.5 Z"/></g>
<g><path style="opacity:0.282" fill="#2f1310" d="M 149.5,146.5 C 150.906,146.973 151.573,147.973 151.5,149.5C 150.094,149.027 149.427,148.027 149.5,146.5 Z"/></g>
<g><path style="opacity:0.016" fill="#200c09" d="M 151.5,159.5 C 151.5,161.5 150.5,162.5 148.5,162.5C 149.167,161.167 150.167,160.167 151.5,159.5 Z"/></g>
<g><path style="opacity:0.753" fill="#481e1c" d="M 43.5,162.5 C 43.2809,166.8 42.2809,170.8 40.5,174.5C 40.7191,170.2 41.7191,166.2 43.5,162.5 Z"/></g>
<g><path style="opacity:1" fill="#f3cba7" d="M 91.5,163.5 C 97.2061,163.053 102.539,164.053 107.5,166.5C 107.328,167.492 107.662,168.158 108.5,168.5C 109.544,172.606 111.878,173.939 115.5,172.5C 121.574,168.87 124.907,170.537 125.5,177.5C 122.314,178.597 119.314,179.93 116.5,181.5C 114.167,181.5 111.833,181.5 109.5,181.5C 106.117,175.044 101.117,173.711 94.5,177.5C 91.1899,177.36 88.8566,175.86 87.5,173C 90.1465,170.673 93.1465,168.839 96.5,167.5C 93.8333,166.833 91.1667,166.167 88.5,165.5C 89.6016,164.824 90.6016,164.158 91.5,163.5 Z"/></g>
<g><path style="opacity:0.024" fill="#210e0b" d="M 143.5,166.5 C 143.027,167.906 142.027,168.573 140.5,168.5C 140.973,167.094 141.973,166.427 143.5,166.5 Z"/></g>
<g><path style="opacity:0.529" fill="#3d332b" d="M 108.5,168.5 C 110.363,170.705 112.697,172.039 115.5,172.5C 111.878,173.939 109.544,172.606 108.5,168.5 Z"/></g>
<g><path style="opacity:0.075" fill="#292222" d="M 123.5,166.5 C 124.167,166.833 124.833,167.167 125.5,167.5C 126.833,169.5 128.5,171.167 130.5,172.5C 130.5,172.833 130.5,173.167 130.5,173.5C 128.427,174.3 126.76,175.633 125.5,177.5C 124.907,170.537 121.574,168.87 115.5,172.5C 117.952,170.026 120.618,168.026 123.5,166.5 Z"/></g>
<g><path style="opacity:0.047" fill="#26100d" d="M 140.5,168.5 C 140.027,169.906 139.027,170.573 137.5,170.5C 137.973,169.094 138.973,168.427 140.5,168.5 Z"/></g>
<g><path style="opacity:1" fill="#df4d42" d="M 105.5,99.5 C 108.781,99.4203 111.781,100.087 114.5,101.5C 115.514,102.674 116.847,103.34 118.5,103.5C 119.5,105.167 120.833,106.5 122.5,107.5C 123.08,109.749 124.413,111.415 126.5,112.5C 126.427,114.027 127.094,115.027 128.5,115.5C 128.427,117.027 129.094,118.027 130.5,118.5C 129.916,121.285 130.916,122.952 133.5,123.5C 133.427,125.027 134.094,126.027 135.5,126.5C 135.738,128.404 136.738,129.738 138.5,130.5C 138.427,132.027 139.094,133.027 140.5,133.5C 140.427,135.027 141.094,136.027 142.5,136.5C 142.427,138.027 143.094,139.027 144.5,139.5C 144.738,141.404 145.738,142.738 147.5,143.5C 147.427,145.027 148.094,146.027 149.5,146.5C 149.427,148.027 150.094,149.027 151.5,149.5C 152.833,152.833 152.833,156.167 151.5,159.5C 150.167,160.167 149.167,161.167 148.5,162.5C 147.421,164.543 145.754,165.876 143.5,166.5C 141.973,166.427 140.973,167.094 140.5,168.5C 138.973,168.427 137.973,169.094 137.5,170.5C 137.5,171.167 137.167,171.5 136.5,171.5C 134.565,172.15 132.565,172.483 130.5,172.5C 128.5,171.167 126.833,169.5 125.5,167.5C 125.351,166.448 125.517,165.448 126,164.5C 129.758,161.249 132.925,157.582 135.5,153.5C 133.839,150.177 131.506,147.51 128.5,145.5C 128.5,143.5 127.5,142.5 125.5,142.5C 125.5,140.5 124.5,139.5 122.5,139.5C 121.581,136.911 119.914,134.911 117.5,133.5C 116.5,133.167 115.833,132.5 115.5,131.5C 115.306,129.088 113.973,128.088 111.5,128.5C 110.592,139.024 109.259,149.357 107.5,159.5C 107.83,153.132 107.496,146.798 106.5,140.5C 105.12,139.024 103.453,138.024 101.5,137.5C 100.167,138.833 98.8333,138.833 97.5,137.5C 96.6143,138.325 96.281,139.325 96.5,140.5C 86.8333,140.5 77.1667,140.5 67.5,140.5C 67.5,139.5 67.5,138.5 67.5,137.5C 65.1732,137.335 63.0065,136.669 61,135.5C 60.5006,130.177 60.334,124.844 60.5,119.5C 60.6882,117.897 60.1882,116.563 59,115.5C 56.8909,117.468 56.0575,119.635 56.5,122C 56.9347,146.903 52.2681,170.737 42.5,193.5C 42.9996,194.881 43.9996,195.547 45.5,195.5C 47.288,194.563 48.6214,193.23 49.5,191.5C 50.5179,194.028 51.5179,193.861 52.5,191C 52.2645,190.127 51.9312,189.293 51.5,188.5C 52.6904,181.838 54.357,175.338 56.5,169C 62.5503,169.966 68.217,168.799 73.5,165.5C 77.0178,167.183 80.5178,168.849 84,170.5C 85.5653,168.535 86.732,166.369 87.5,164C 88.7932,163.51 90.1266,163.343 91.5,163.5C 90.6016,164.158 89.6016,164.824 88.5,165.5C 91.1667,166.167 93.8333,166.833 96.5,167.5C 93.1465,168.839 90.1465,170.673 87.5,173C 88.8566,175.86 91.1899,177.36 94.5,177.5C 101.117,173.711 106.117,175.044 109.5,181.5C 109.263,182.791 109.596,183.791 110.5,184.5C 110.5,184.833 110.5,185.167 110.5,185.5C 110.294,188.495 110.96,191.162 112.5,193.5C 112.5,195.167 112.5,196.833 112.5,198.5C 107.722,200.648 102.722,201.981 97.5,202.5C 82.347,204.208 67.347,203.541 52.5,200.5C 48.8737,198.18 44.8737,196.847 40.5,196.5C 40.5,189.167 40.5,181.833 40.5,174.5C 42.2809,170.8 43.2809,166.8 43.5,162.5C 43.1981,147.119 43.5314,131.785 44.5,116.5C 45.7682,114.095 46.4349,111.428 46.5,108.5C 48.1667,107.5 49.5,106.167 50.5,104.5C 53.855,104.31 56.855,103.31 59.5,101.5C 62.1667,101.167 64.8333,100.833 67.5,100.5C 67.19,103.713 67.5233,106.713 68.5,109.5C 69.1667,109.5 69.8333,109.5 70.5,109.5C 73.4021,108.422 76.4021,107.756 79.5,107.5C 79.8333,107.5 80.1667,107.5 80.5,107.5C 83.0118,108.867 85.3452,108.534 87.5,106.5C 88.5,106.5 89.5,106.5 90.5,106.5C 92.6845,108.585 95.3511,109.585 98.5,109.5C 98.5,105.833 98.5,102.167 98.5,98.5C 100.806,98.9926 103.139,99.3259 105.5,99.5 Z M 115.5,131.5 C 115.833,132.5 116.5,133.167 117.5,133.5C 118.419,136.089 120.086,138.089 122.5,139.5C 123.167,140.833 124.167,141.833 125.5,142.5C 126.167,143.833 127.167,144.833 128.5,145.5C 130.091,148.431 132.091,151.098 134.5,153.5C 130.412,157.579 126.745,161.912 123.5,166.5C 120.618,168.026 117.952,170.026 115.5,172.5C 112.697,172.039 110.363,170.705 108.5,168.5C 109.67,155.469 111.17,142.469 113,129.5C 113.708,130.381 114.542,131.047 115.5,131.5 Z"/></g>
<g><path style="opacity:0.541" fill="#451714" d="M 128.5,145.5 C 131.506,147.51 133.839,150.177 135.5,153.5C 132.925,157.582 129.758,161.249 126,164.5C 125.517,165.448 125.351,166.448 125.5,167.5C 124.833,167.167 124.167,166.833 123.5,166.5C 126.745,161.912 130.412,157.579 134.5,153.5C 132.091,151.098 130.091,148.431 128.5,145.5 Z"/></g>
<g><path style="opacity:0.094" fill="#301310" d="M 115.5,131.5 C 114.542,131.047 113.708,130.381 113,129.5C 111.17,142.469 109.67,155.469 108.5,168.5C 107.662,168.158 107.328,167.492 107.5,166.5C 107.5,164.167 107.5,161.833 107.5,159.5C 109.259,149.357 110.592,139.024 111.5,128.5C 113.973,128.088 115.306,129.088 115.5,131.5 Z"/></g>
<g><path style="opacity:0.694" fill="#4e1816" d="M 125.5,142.5 C 127.5,142.5 128.5,143.5 128.5,145.5C 127.167,144.833 126.167,143.833 125.5,142.5 Z"/></g>
<g><path style="opacity:0.631" fill="#461815" d="M 122.5,139.5 C 124.5,139.5 125.5,140.5 125.5,142.5C 124.167,141.833 123.167,140.833 122.5,139.5 Z"/></g>
<g><path style="opacity:0.008" fill="#2a110e" d="M 117.5,133.5 C 119.914,134.911 121.581,136.911 122.5,139.5C 120.086,138.089 118.419,136.089 117.5,133.5 Z"/></g>
<g><path style="opacity:1" fill="#e64e44" d="M 60.5,119.5 C 60.334,124.844 60.5006,130.177 61,135.5C 63.0065,136.669 65.1732,137.335 67.5,137.5C 67.5,138.5 67.5,139.5 67.5,140.5C 77.1667,140.5 86.8333,140.5 96.5,140.5C 96.281,139.325 96.6143,138.325 97.5,137.5C 98.8333,138.833 100.167,138.833 101.5,137.5C 103.453,138.024 105.12,139.024 106.5,140.5C 107.496,146.798 107.83,153.132 107.5,159.5C 107.5,161.833 107.5,164.167 107.5,166.5C 102.539,164.053 97.2061,163.053 91.5,163.5C 90.1266,163.343 88.7932,163.51 87.5,164C 86.732,166.369 85.5653,168.535 84,170.5C 80.5178,168.849 77.0178,167.183 73.5,165.5C 68.217,168.799 62.5503,169.966 56.5,169C 54.357,175.338 52.6904,181.838 51.5,188.5C 51.9312,189.293 52.2645,190.127 52.5,191C 51.5179,193.861 50.5179,194.028 49.5,191.5C 53.4238,175.044 56.2571,158.377 58,141.5C 58.3051,134.817 58.3051,128.15 58,121.5C 58.7083,120.619 59.5416,119.953 60.5,119.5 Z"/></g>
<g><path style="opacity:1" fill="#e95d54" d="M 62.5,118.5 C 72.1572,119.759 81.8238,120.093 91.5,119.5C 94.0891,119.851 96.5891,120.518 99,121.5C 102.687,120.181 105.02,121.515 106,125.5C 106.499,129.152 106.665,132.818 106.5,136.5C 92.1077,136.93 77.7743,136.43 63.5,135C 63,134.5 62.5,134 62,133.5C 61.3369,128.463 61.5036,123.463 62.5,118.5 Z"/></g>
<g><path style="opacity:0.631" fill="#b57f6b" d="M 81.5,105.5 C 83.4513,106.641 85.4513,106.641 87.5,105.5C 87.5,105.833 87.5,106.167 87.5,106.5C 85.3452,108.534 83.0118,108.867 80.5,107.5C 81.3382,107.158 81.6716,106.492 81.5,105.5 Z"/></g>
<g><path style="opacity:0.839" fill="#732421" d="M 76.5,106.5 C 77.791,106.263 78.791,106.596 79.5,107.5C 76.4021,107.756 73.4021,108.422 70.5,109.5C 70.5,109.167 70.5,108.833 70.5,108.5C 72.4214,107.637 74.4214,106.971 76.5,106.5 Z"/></g>
<g><path style="opacity:0.2" fill="#3e2e29" d="M 76.5,101.5 C 78.5735,102.3 80.2402,103.633 81.5,105.5C 81.6716,106.492 81.3382,107.158 80.5,107.5C 80.1667,107.5 79.8333,107.5 79.5,107.5C 78.791,106.596 77.791,106.263 76.5,106.5C 77.0906,105.849 77.7573,105.182 78.5,104.5C 77.8075,103.482 77.1408,102.482 76.5,101.5 Z"/></g>
<g><path style="opacity:0.039" fill="#241c1b" d="M 90.5,101.5 C 89.438,103.234 89.438,104.901 90.5,106.5C 89.5,106.5 88.5,106.5 87.5,106.5C 87.5,106.167 87.5,105.833 87.5,105.5C 87.7376,103.596 88.7376,102.262 90.5,101.5 Z"/></g>
<g><path style="opacity:0.843" fill="#572220" d="M 136.5,171.5 C 134.915,173.982 132.915,174.648 130.5,173.5C 130.5,173.167 130.5,172.833 130.5,172.5C 132.565,172.483 134.565,172.15 136.5,171.5 Z"/></g>
<g><path style="opacity:0.267" fill="#3d352e" d="M 125.5,177.5 C 123.165,180.165 120.165,181.498 116.5,181.5C 119.314,179.93 122.314,178.597 125.5,177.5 Z"/></g>
<g><path style="opacity:0.165" fill="#261a16" d="M 109.5,181.5 C 111.833,181.5 114.167,181.5 116.5,181.5C 114.156,181.94 112.156,182.94 110.5,184.5C 109.596,183.791 109.263,182.791 109.5,181.5 Z"/></g>
<g><path style="opacity:1" fill="#da3e33" d="M 60.5,119.5 C 59.5416,119.953 58.7083,120.619 58,121.5C 58.3051,128.15 58.3051,134.817 58,141.5C 56.2571,158.377 53.4238,175.044 49.5,191.5C 48.6214,193.23 47.288,194.563 45.5,195.5C 43.9996,195.547 42.9996,194.881 42.5,193.5C 52.2681,170.737 56.9347,146.903 56.5,122C 56.0575,119.635 56.8909,117.468 59,115.5C 60.1882,116.563 60.6882,117.897 60.5,119.5 Z"/></g>
<g><path style="opacity:0.631" fill="#401a18" d="M 110.5,185.5 C 111.768,187.905 112.435,190.572 112.5,193.5C 110.96,191.162 110.294,188.495 110.5,185.5 Z"/></g>
<g><path style="opacity:1" fill="#db4136" d="M 107.5,190.5 C 109.814,191.179 110.147,192.512 108.5,194.5C 109.167,195.167 109.833,195.833 110.5,196.5C 103.453,200.674 95.786,202.174 87.5,201C 88.6956,200.346 88.6956,199.846 87.5,199.5C 86.7065,199.931 85.8732,200.265 85,200.5C 81.7991,199.209 78.7991,197.543 76,195.5C 74.6106,197.227 72.9439,198.561 71,199.5C 67.6713,199.032 64.5047,198.199 61.5,197C 62.354,195.978 63.354,195.145 64.5,194.5C 66.3115,195.739 68.3115,196.406 70.5,196.5C 81.0693,194.652 91.7359,193.485 102.5,193C 104.491,192.626 106.158,191.793 107.5,190.5 Z"/></g>
<g><path style="opacity:1" fill="#ccb299" d="M 40.5,196.5 C 40.5,198.167 40.5,199.833 40.5,201.5C 42.5,201.5 44.5,201.5 46.5,201.5C 46.7845,203.415 46.4511,205.081 45.5,206.5C 45.5,205.5 45.5,204.5 45.5,203.5C 44.1667,203.5 42.8333,203.5 41.5,203.5C 41.4835,207.534 40.4835,211.201 38.5,214.5C 38.5,214.167 38.5,213.833 38.5,213.5C 39.0284,207.682 39.6951,202.016 40.5,196.5 Z"/></g>
<g><path style="opacity:1" fill="#f1e7e9" d="M 40.5,196.5 C 44.8737,196.847 48.8737,198.18 52.5,200.5C 56.7335,202.955 61.4002,204.289 66.5,204.5C 71.0937,204.865 75.427,205.865 79.5,207.5C 79.5,209.167 79.5,210.833 79.5,212.5C 74.7682,212.622 70.1016,212.122 65.5,211C 58.5466,208.832 52.2133,205.666 46.5,201.5C 44.5,201.5 42.5,201.5 40.5,201.5C 40.5,199.833 40.5,198.167 40.5,196.5 Z"/></g>
<g><path style="opacity:1" fill="#c8554d" d="M 52.5,200.5 C 67.347,203.541 82.347,204.208 97.5,202.5C 94.6553,203.344 91.6553,204.01 88.5,204.5C 81.1667,204.5 73.8333,204.5 66.5,204.5C 61.4002,204.289 56.7335,202.955 52.5,200.5 Z"/></g>
<g><path style="opacity:0.047" fill="#2c1815" d="M 40.5,174.5 C 40.5,181.833 40.5,189.167 40.5,196.5C 39.6951,202.016 39.0284,207.682 38.5,213.5C 38.1667,213.5 37.8333,213.5 37.5,213.5C 38.1094,200.329 39.1094,187.329 40.5,174.5 Z"/></g>
<g><path style="opacity:1" fill="#dcaaa6" d="M 66.5,204.5 C 73.8333,204.5 81.1667,204.5 88.5,204.5C 85.8411,204.917 83.5078,205.917 81.5,207.5C 80.8333,207.5 80.1667,207.5 79.5,207.5C 75.427,205.865 71.0937,204.865 66.5,204.5 Z"/></g>
<g><path style="opacity:1" fill="#f2ebee" d="M 112.5,198.5 C 112.634,200.292 112.301,201.958 111.5,203.5C 102.697,209.1 93.0304,212.1 82.5,212.5C 81.962,210.883 81.6287,209.216 81.5,207.5C 83.5078,205.917 85.8411,204.917 88.5,204.5C 91.6553,204.01 94.6553,203.344 97.5,202.5C 102.722,201.981 107.722,200.648 112.5,198.5 Z"/></g>
<g><path style="opacity:1" fill="#40231f" d="M 111.5,203.5 C 115.256,227.377 118.422,251.377 121,275.5C 130.452,302.67 134.786,330.67 134,359.5C 135.039,360.244 135.539,361.244 135.5,362.5C 132.612,361.922 129.612,361.922 126.5,362.5C 125.254,372.174 128.92,379.341 137.5,384C 141.211,384.825 144.878,384.659 148.5,383.5C 145.737,380.748 143.403,377.748 141.5,374.5C 144.5,376.833 147.167,379.5 149.5,382.5C 150.455,384.746 151.122,387.079 151.5,389.5C 146.703,389.879 142.036,389.379 137.5,388C 134.299,384.464 130.799,381.297 127,378.5C 125.763,374.94 125.263,371.273 125.5,367.5C 125.5,365.833 125.5,364.167 125.5,362.5C 122.13,346.885 117.63,331.552 112,316.5C 110.539,308.859 109.205,301.192 108,293.5C 96.9755,267.262 88.4755,240.262 82.5,212.5C 93.0304,212.1 102.697,209.1 111.5,203.5 Z"/></g>
<g><path style="opacity:1" fill="#40231f" d="M 46.5,201.5 C 52.2133,205.666 58.5466,208.832 65.5,211C 70.1016,212.122 74.7682,212.622 79.5,212.5C 79.5,210.833 79.5,209.167 79.5,207.5C 80.1667,207.5 80.8333,207.5 81.5,207.5C 81.6287,209.216 81.962,210.883 82.5,212.5C 81.8826,212.389 81.3826,212.056 81,211.5C 80.296,213.278 79.796,215.112 79.5,217C 80.7895,242.823 80.7895,268.656 79.5,294.5C 81.5208,314.85 82.8541,335.184 83.5,355.5C 80.8728,356.092 78.2062,356.425 75.5,356.5C 70.5573,341.731 66.3906,326.731 63,311.5C 61.9039,297.523 61.2373,283.523 61,269.5C 56.0301,248.014 52.0301,226.347 49,204.5C 48.5045,206.473 48.3379,208.473 48.5,210.5C 47.7321,209.737 47.2321,208.737 47,207.5C 46.5045,209.473 46.3379,211.473 46.5,213.5C 46.1667,213.5 45.8333,213.5 45.5,213.5C 45.5,211.167 45.5,208.833 45.5,206.5C 46.4511,205.081 46.7845,203.415 46.5,201.5 Z"/></g>
<g><path style="opacity:1" fill="#f7d3ad" d="M 45.5,206.5 C 45.5,208.833 45.5,211.167 45.5,213.5C 45.6658,218.179 45.4992,222.845 45,227.5C 43.8756,224.158 42.3756,223.825 40.5,226.5C 39.8939,229.167 39.0605,231.834 38,234.5C 37.1706,229.863 36.6706,225.196 36.5,220.5C 36.9707,218.421 37.6373,216.421 38.5,214.5C 40.4835,211.201 41.4835,207.534 41.5,203.5C 42.8333,203.5 44.1667,203.5 45.5,203.5C 45.5,204.5 45.5,205.5 45.5,206.5 Z"/></g>
<g><path style="opacity:0.702" fill="#5d5146" d="M 37.5,213.5 C 37.8333,213.5 38.1667,213.5 38.5,213.5C 38.5,213.833 38.5,214.167 38.5,214.5C 37.6373,216.421 36.9707,218.421 36.5,220.5C 36.1667,220.5 35.8333,220.5 35.5,220.5C 35.4095,217.848 36.0762,215.515 37.5,213.5 Z"/></g>
<g><path style="opacity:0.39" fill="#353029" d="M 35.5,220.5 C 35.3342,225.179 35.5008,229.845 36,234.5C 36.7172,235.044 37.2172,235.711 37.5,236.5C 36.5041,236.586 35.6708,236.252 35,235.5C 33.4071,230.361 33.5738,225.361 35.5,220.5 Z"/></g>
<g><path style="opacity:1" fill="#c6ad92" d="M 45.5,213.5 C 45.8333,213.5 46.1667,213.5 46.5,213.5C 47.6525,220.309 48.3192,227.309 48.5,234.5C 48.5,235.833 48.5,237.167 48.5,238.5C 46.1667,238.5 43.8333,238.5 41.5,238.5C 39.847,238.34 38.5137,237.674 37.5,236.5C 37.2172,235.711 36.7172,235.044 36,234.5C 35.5008,229.845 35.3342,225.179 35.5,220.5C 35.8333,220.5 36.1667,220.5 36.5,220.5C 36.6706,225.196 37.1706,229.863 38,234.5C 39.0605,231.834 39.8939,229.167 40.5,226.5C 42.3756,223.825 43.8756,224.158 45,227.5C 45.4992,222.845 45.6658,218.179 45.5,213.5 Z"/></g>
<g><path style="opacity:0.282" fill="#49413a" d="M 40.5,226.5 C 41.5,226.5 42.5,226.5 43.5,226.5C 43.5,227.833 43.5,229.167 43.5,230.5C 42.5,230.5 41.5,230.5 40.5,230.5C 40.5,229.167 40.5,227.833 40.5,226.5 Z"/></g>
<g><path style="opacity:0.553" fill="#3c342e" d="M 48.5,234.5 C 49.947,236.838 49.447,238.838 47,240.5C 45.0517,239.891 43.2184,239.224 41.5,238.5C 43.8333,238.5 46.1667,238.5 48.5,238.5C 48.5,237.167 48.5,235.833 48.5,234.5 Z"/></g>
<g><path style="opacity:0.694" fill="#150706" d="M 112.5,193.5 C 116.38,219.935 119.546,246.601 122,273.5C 132.042,302.982 136.875,333.315 136.5,364.5C 135.662,364.158 135.328,363.492 135.5,362.5C 135.539,361.244 135.039,360.244 134,359.5C 134.786,330.67 130.452,302.67 121,275.5C 118.422,251.377 115.256,227.377 111.5,203.5C 112.301,201.958 112.634,200.292 112.5,198.5C 112.5,196.833 112.5,195.167 112.5,193.5 Z"/></g>
<g><path style="opacity:0.239" fill="#130505" d="M 82.5,212.5 C 88.4755,240.262 96.9755,267.262 108,293.5C 109.205,301.192 110.539,308.859 112,316.5C 117.63,331.552 122.13,346.885 125.5,362.5C 120.476,346.927 115.309,331.26 110,315.5C 108.574,307.849 107.24,300.182 106,292.5C 95.6962,268.301 87.6962,243.301 82,217.5C 82.6074,241.667 82.4407,265.834 81.5,290C 82.9026,312.149 83.9026,334.315 84.5,356.5C 83.8333,356.5 83.5,356.167 83.5,355.5C 82.8541,335.184 81.5208,314.85 79.5,294.5C 80.7895,268.656 80.7895,242.823 79.5,217C 79.796,215.112 80.296,213.278 81,211.5C 81.3826,212.056 81.8826,212.389 82.5,212.5 Z"/></g>
<g><path style="opacity:0.471" fill="#160607" d="M 75.5,356.5 C 75.6716,357.492 75.3382,358.158 74.5,358.5C 69.295,342.382 64.795,326.048 61,309.5C 60.3017,295.835 59.635,282.168 59,268.5C 54.5319,249.328 51.0319,229.994 48.5,210.5C 48.3379,208.473 48.5045,206.473 49,204.5C 52.0301,226.347 56.0301,248.014 61,269.5C 61.2373,283.523 61.9039,297.523 63,311.5C 66.3906,326.731 70.5573,341.731 75.5,356.5 Z"/></g>
<g><path style="opacity:1" fill="#f1cea9" d="M 83.5,355.5 C 83.5,356.167 83.8333,356.5 84.5,356.5C 85.1995,360.798 85.5328,365.131 85.5,369.5C 85.5,372.833 85.5,376.167 85.5,379.5C 81.8333,379.5 78.1667,379.5 74.5,379.5C 74.5,373.167 74.5,366.833 74.5,360.5C 74.5,359.833 74.5,359.167 74.5,358.5C 75.3382,358.158 75.6716,357.492 75.5,356.5C 78.2062,356.425 80.8728,356.092 83.5,355.5 Z"/></g>
<g><path style="opacity:0.212" fill="#3b3227" d="M 84.5,356.5 C 85.2679,357.263 85.7679,358.263 86,359.5C 86.4983,362.817 86.665,366.15 86.5,369.5C 86.1667,369.5 85.8333,369.5 85.5,369.5C 85.5328,365.131 85.1995,360.798 84.5,356.5 Z"/></g>
<g><path style="opacity:1" fill="#eccaa6" d="M 135.5,362.5 C 135.328,363.492 135.662,364.158 136.5,364.5C 137.363,366.421 138.029,368.421 138.5,370.5C 138.738,372.404 139.738,373.738 141.5,374.5C 143.403,377.748 145.737,380.748 148.5,383.5C 144.878,384.659 141.211,384.825 137.5,384C 128.92,379.341 125.254,372.174 126.5,362.5C 129.612,361.922 132.612,361.922 135.5,362.5 Z"/></g>
<g><path style="opacity:0.486" fill="#3d352d" d="M 138.5,370.5 C 140.262,371.262 141.262,372.596 141.5,374.5C 139.738,373.738 138.738,372.404 138.5,370.5 Z"/></g>
<g><path style="opacity:1" fill="#9a7e6a" d="M 74.5,360.5 C 74.5,366.833 74.5,373.167 74.5,379.5C 78.1667,379.5 81.8333,379.5 85.5,379.5C 85.5,376.167 85.5,372.833 85.5,369.5C 85.8333,369.5 86.1667,369.5 86.5,369.5C 86.5,373.167 86.5,376.833 86.5,380.5C 82.1667,380.5 77.8333,380.5 73.5,380.5C 73.5,377.833 73.5,375.167 73.5,372.5C 73.1832,368.298 73.5166,364.298 74.5,360.5 Z"/></g>
<g><path style="opacity:0.561" fill="#150807" d="M 73.5,372.5 C 73.5,375.167 73.5,377.833 73.5,380.5C 73.393,382.903 74.393,384.736 76.5,386C 86.177,387.48 89.8436,383.313 87.5,373.5C 91.8798,381.558 89.5465,386.558 80.5,388.5C 71.6024,386.038 69.2691,380.705 73.5,372.5 Z"/></g>
<g><path style="opacity:1" fill="#41251f" d="M 86.5,369.5 C 87.4345,370.568 87.7678,371.901 87.5,373.5C 89.8436,383.313 86.177,387.48 76.5,386C 74.393,384.736 73.393,382.903 73.5,380.5C 77.8333,380.5 82.1667,380.5 86.5,380.5C 86.5,376.833 86.5,373.167 86.5,369.5 Z"/></g>
<g><path style="opacity:0.763" fill="#160707" d="M 125.5,367.5 C 125.263,371.273 125.763,374.94 127,378.5C 130.799,381.297 134.299,384.464 137.5,388C 142.036,389.379 146.703,389.879 151.5,389.5C 151.122,387.079 150.455,384.746 149.5,382.5C 152.936,384.527 153.936,387.361 152.5,391C 147.442,391.661 142.442,391.328 137.5,390C 133.97,385.97 129.97,382.47 125.5,379.5C 124.204,375.369 124.204,371.369 125.5,367.5 Z"/></g>
</svg>
