<?xml version="1.0" encoding="UTF-8"?>
<!DOCTYPE svg PUBLIC "-//W3C//DTD SVG 1.1//EN" "http://www.w3.org/Graphics/SVG/1.1/DTD/svg11.dtd">
<svg xmlns="http://www.w3.org/2000/svg" version="1.1" width="214px" height="420px" style="shape-rendering:geometricPrecision; text-rendering:geometricPrecision; image-rendering:optimizeQuality; fill-rule:evenodd; clip-rule:evenodd" xmlns:xlink="http://www.w3.org/1999/xlink">
<g><path style="opacity:0.037" fill="#0a0503" d="M 115.5,21.5 C 113.952,21.8212 113.285,22.8212 113.5,24.5C 113.167,24.5 112.833,24.5 112.5,24.5C 112.5,23.1667 112.5,21.8333 112.5,20.5C 113.791,20.2627 114.791,20.596 115.5,21.5 Z"/></g>
<g><path style="opacity:0.439" fill="#361f17" d="M 115.5,21.5 C 116.995,21.9887 118.329,22.6554 119.5,23.5C 117.517,23.8432 116.183,23.1765 115.5,21.5 Z"/></g>
<g><path style="opacity:1" fill="#934f35" d="M 115.5,21.5 C 116.183,23.1765 117.517,23.8432 119.5,23.5C 120.906,23.9731 121.573,24.9731 121.5,26.5C 119.18,24.7739 116.513,24.1072 113.5,24.5C 113.285,22.8212 113.952,21.8212 115.5,21.5 Z"/></g>
<g><path style="opacity:0.825" fill="#612b16" d="M 112.5,24.5 C 112.833,24.5 113.167,24.5 113.5,24.5C 111.365,26.369 108.698,27.0356 105.5,26.5C 98.7978,26.3357 92.1311,26.669 85.5,27.5C 87.4758,25.9891 89.8091,25.1558 92.5,25C 99.2801,24.684 105.947,24.5173 112.5,24.5 Z"/></g>
<g><path style="opacity:1" fill="#d04c15" d="M 105.5,26.5 C 100.179,27.9919 95.1788,30.3253 90.5,33.5C 90.8333,33.8333 91.1667,34.1667 91.5,34.5C 99.4284,33.0034 107.428,31.8367 115.5,31C 117.408,29.0938 119.408,28.2605 121.5,28.5C 122.275,32.1816 120.941,34.6816 117.5,36C 105.964,35.8086 94.6305,37.1419 83.5,40C 82.244,40.4169 81.5774,41.2502 81.5,42.5C 80.609,43.1098 79.609,43.4431 78.5,43.5C 78.1667,43.5 77.8333,43.5 77.5,43.5C 77.5,40.5 77.5,37.5 77.5,34.5C 79.2624,33.7377 80.2624,32.4044 80.5,30.5C 82.8477,30.4077 84.5144,29.4077 85.5,27.5C 92.1311,26.669 98.7978,26.3357 105.5,26.5 Z"/></g>
<g><path style="opacity:1" fill="#dc683d" d="M 113.5,24.5 C 116.513,24.1072 119.18,24.7739 121.5,26.5C 121.5,27.1667 121.5,27.8333 121.5,28.5C 119.408,28.2605 117.408,29.0938 115.5,31C 107.428,31.8367 99.4284,33.0034 91.5,34.5C 91.1667,34.1667 90.8333,33.8333 90.5,33.5C 95.1788,30.3253 100.179,27.9919 105.5,26.5C 108.698,27.0356 111.365,26.369 113.5,24.5 Z"/></g>
<g><path style="opacity:0.769" fill="#6a2a12" d="M 85.5,27.5 C 84.5144,29.4077 82.8477,30.4077 80.5,30.5C 81.6594,28.7497 83.326,27.7497 85.5,27.5 Z"/></g>
<g><path style="opacity:0.804" fill="#4e1f0e" d="M 80.5,30.5 C 80.2624,32.4044 79.2624,33.7377 77.5,34.5C 77.7376,32.5956 78.7376,31.2623 80.5,30.5 Z"/></g>
<g><path style="opacity:0.625" fill="#421d0f" d="M 77.5,34.5 C 77.5,37.5 77.5,40.5 77.5,43.5C 75.1197,40.5532 75.1197,37.5532 77.5,34.5 Z"/></g>
<g><path style="opacity:1" fill="#b6411a" d="M 121.5,26.5 C 122.338,26.8417 122.672,27.5084 122.5,28.5C 122.693,32.5662 122.36,36.5662 121.5,40.5C 110.475,37.8892 99.4751,37.8892 88.5,40.5C 85.9214,40.3939 83.588,41.0605 81.5,42.5C 81.5774,41.2502 82.244,40.4169 83.5,40C 94.6305,37.1419 105.964,35.8086 117.5,36C 120.941,34.6816 122.275,32.1816 121.5,28.5C 121.5,27.8333 121.5,27.1667 121.5,26.5 Z"/></g>
<g><path style="opacity:1" fill="#d96e49" d="M 88.5,40.5 C 86.6821,45.2709 86.0154,50.2709 86.5,55.5C 83.5113,55.8143 81.178,57.1476 79.5,59.5C 79.1667,59.5 78.8333,59.5 78.5,59.5C 78.5,54.1667 78.5,48.8333 78.5,43.5C 79.609,43.4431 80.609,43.1098 81.5,42.5C 83.588,41.0605 85.9214,40.3939 88.5,40.5 Z"/></g>
<g><path style="opacity:1" fill="#f79f80" d="M 121.5,40.5 C 121.5,43.5 121.5,46.5 121.5,49.5C 121.5,51.5 121.5,53.5 121.5,55.5C 109.832,56.7781 98.1649,56.7781 86.5,55.5C 86.0154,50.2709 86.6821,45.2709 88.5,40.5C 99.4751,37.8892 110.475,37.8892 121.5,40.5 Z"/></g>
<g><path style="opacity:0.527" fill="#583227" d="M 122.5,28.5 C 123.665,29.4961 124.332,30.8295 124.5,32.5C 122.977,38.0663 122.31,43.733 122.5,49.5C 122.167,49.5 121.833,49.5 121.5,49.5C 121.5,46.5 121.5,43.5 121.5,40.5C 122.36,36.5662 122.693,32.5662 122.5,28.5 Z"/></g>
<g><path style="opacity:0.212" fill="#321e17" d="M 77.5,43.5 C 77.8333,43.5 78.1667,43.5 78.5,43.5C 78.5,48.8333 78.5,54.1667 78.5,59.5C 77.7095,60.4013 76.7095,61.0679 75.5,61.5C 77.305,55.7171 77.9717,49.7171 77.5,43.5 Z"/></g>
<g><path style="opacity:1" fill="#d0663a" d="M 109.5,51.5 C 112.722,51.1081 115.722,51.6081 118.5,53C 117,53.1667 115.5,53.3333 114,53.5C 112.014,53.4313 110.514,52.7647 109.5,51.5 Z"/></g>
<g><path style="opacity:0.814" fill="#2e2421" d="M 121.5,49.5 C 121.833,49.5 122.167,49.5 122.5,49.5C 122.347,52.5772 123.014,55.4105 124.5,58C 123.228,62.9866 121.895,67.8199 120.5,72.5C 120.923,70.2188 120.256,68.5521 118.5,67.5C 118.5,67.1667 118.5,66.8333 118.5,66.5C 119.6,65.3951 120.267,64.0618 120.5,62.5C 121.451,61.0813 121.784,59.4147 121.5,57.5C 121.5,56.8333 121.5,56.1667 121.5,55.5C 121.5,53.5 121.5,51.5 121.5,49.5 Z"/></g>
<g><path style="opacity:1" fill="#603d30" d="M 86.5,55.5 C 98.1649,56.7781 109.832,56.7781 121.5,55.5C 121.5,56.1667 121.5,56.8333 121.5,57.5C 117.167,57.5 112.833,57.5 108.5,57.5C 108.629,59.2161 108.962,60.8828 109.5,62.5C 109.511,64.0174 110.177,65.1841 111.5,66C 113.81,66.4966 116.143,66.6633 118.5,66.5C 118.5,66.8333 118.5,67.1667 118.5,67.5C 116.167,67.5 113.833,67.5 111.5,67.5C 108.11,66.0563 106.777,63.3896 107.5,59.5C 106.022,59.238 104.689,59.5713 103.5,60.5C 101.132,68.561 96.2988,70.561 89,66.5C 87.6591,63.978 86.8257,61.3113 86.5,58.5C 84.139,58.6741 81.8056,59.0074 79.5,59.5C 81.178,57.1476 83.5113,55.8143 86.5,55.5 Z"/></g>
<g><path style="opacity:1" fill="#ecc6ba" d="M 121.5,57.5 C 121.784,59.4147 121.451,61.0813 120.5,62.5C 116.787,58.5149 113.121,58.5149 109.5,62.5C 108.962,60.8828 108.629,59.2161 108.5,57.5C 112.833,57.5 117.167,57.5 121.5,57.5 Z"/></g>
<g><path style="opacity:1" fill="#dda996" d="M 120.5,62.5 C 120.267,64.0618 119.6,65.3951 118.5,66.5C 116.143,66.6633 113.81,66.4966 111.5,66C 110.177,65.1841 109.511,64.0174 109.5,62.5C 113.121,58.5149 116.787,58.5149 120.5,62.5 Z"/></g>
<g><path style="opacity:1" fill="#e6b4a4" d="M 88.5,57.5 C 92.8814,57.3718 97.2147,57.7051 101.5,58.5C 100.749,66.5722 96.9152,68.5722 90,64.5C 88.7978,62.3225 88.2978,59.9892 88.5,57.5 Z"/></g>
<g><path style="opacity:1" fill="#f29e82" d="M 111.5,67.5 C 114.028,68.1657 116.694,68.8324 119.5,69.5C 117.988,74.1244 116.655,78.791 115.5,83.5C 113.374,84.0482 111.374,84.7148 109.5,85.5C 100.605,87.162 93.4379,84.4953 88,77.5C 86.9605,75.2537 85.7938,73.087 84.5,71C 81.854,70.5026 79.1873,70.3359 76.5,70.5C 74.6875,67.5043 74.3541,64.5043 75.5,61.5C 76.7095,61.0679 77.7095,60.4013 78.5,59.5C 78.8333,59.5 79.1667,59.5 79.5,59.5C 81.8056,59.0074 84.139,58.6741 86.5,58.5C 86.8257,61.3113 87.6591,63.978 89,66.5C 96.2988,70.561 101.132,68.561 103.5,60.5C 104.689,59.5713 106.022,59.238 107.5,59.5C 106.777,63.3896 108.11,66.0563 111.5,67.5 Z"/></g>
<g><path style="opacity:1" fill="#b7806f" d="M 111.5,67.5 C 113.833,67.5 116.167,67.5 118.5,67.5C 120.256,68.5521 120.923,70.2188 120.5,72.5C 120.5,72.8333 120.5,73.1667 120.5,73.5C 118.926,75.1016 118.259,77.1016 118.5,79.5C 118.262,81.4044 117.262,82.7377 115.5,83.5C 116.655,78.791 117.988,74.1244 119.5,69.5C 116.694,68.8324 114.028,68.1657 111.5,67.5 Z"/></g>
<g><path style="opacity:0.6" fill="#5d3d35" d="M 78.5,71.5 C 82.8074,71.7366 85.1408,74.0699 85.5,78.5C 83.8639,77.2511 82.6972,75.5844 82,73.5C 80.6976,72.9152 79.531,72.2485 78.5,71.5 Z"/></g>
<g><path style="opacity:1" fill="#f3d5ca" d="M 110.5,74.5 C 109.102,76.5328 107.102,77.5328 104.5,77.5C 102.443,77.5643 100.777,76.8976 99.5,75.5C 102.962,74.5184 106.629,74.185 110.5,74.5 Z"/></g>
<g><path style="opacity:0.396" fill="#43302b" d="M 120.5,73.5 C 120.405,75.7857 119.738,77.7857 118.5,79.5C 118.259,77.1016 118.926,75.1016 120.5,73.5 Z"/></g>
<g><path style="opacity:1" fill="#b6453e" d="M 110.5,74.5 C 111.525,74.8966 111.692,75.5632 111,76.5C 106.744,81.8011 102.577,81.8011 98.5,76.5C 98.6236,75.8933 98.9569,75.56 99.5,75.5C 100.777,76.8976 102.443,77.5643 104.5,77.5C 107.102,77.5328 109.102,76.5328 110.5,74.5 Z"/></g>
<g><path style="opacity:0.91" fill="#714f43" d="M 192.5,87.5 C 192.167,87.5 191.833,87.5 191.5,87.5C 190.978,80.8638 190.145,80.8638 189,87.5C 188.292,88.3805 187.458,89.0472 186.5,89.5C 186.789,85.9654 188.123,82.9654 190.5,80.5C 193.503,82.1781 194.169,84.5114 192.5,87.5 Z"/></g>
<g><path style="opacity:1" fill="#e48a70" d="M 76.5,70.5 C 79.1873,70.3359 81.854,70.5026 84.5,71C 85.7938,73.087 86.9605,75.2537 88,77.5C 93.4379,84.4953 100.605,87.162 109.5,85.5C 107.273,87.2287 106.273,89.562 106.5,92.5C 102.123,92.4225 97.7901,91.9225 93.5,91C 92.9011,89.3775 92.2344,87.8775 91.5,86.5C 91.6716,85.5084 91.3382,84.8417 90.5,84.5C 88.086,83.0892 86.4194,81.0892 85.5,78.5C 85.1408,74.0699 82.8074,71.7366 78.5,71.5C 77.5084,71.6716 76.8417,71.3382 76.5,70.5 Z"/></g>
<g><path style="opacity:1" fill="#ca8675" d="M 115.5,83.5 C 114.674,85.2644 113.341,86.5977 111.5,87.5C 110.504,87.4142 109.671,87.7476 109,88.5C 108.605,91.2066 108.105,93.8733 107.5,96.5C 106.833,97.1667 106.167,97.8333 105.5,98.5C 105.833,96.5 106.167,94.5 106.5,92.5C 106.273,89.562 107.273,87.2287 109.5,85.5C 111.374,84.7148 113.374,84.0482 115.5,83.5 Z"/></g>
<g><path style="opacity:0.506" fill="#48332b" d="M 191.5,87.5 C 191.833,87.5 192.167,87.5 192.5,87.5C 192.5,88.5 192.5,89.5 192.5,90.5C 194.735,90.2053 196.735,90.5386 198.5,91.5C 196.167,91.5 193.833,91.5 191.5,91.5C 191.5,90.1667 191.5,88.8333 191.5,87.5 Z"/></g>
<g><path style="opacity:0.831" fill="#65463b" d="M 185.5,91.5 C 184.92,93.7488 183.587,95.4154 181.5,96.5C 182.08,94.2512 183.413,92.5846 185.5,91.5 Z"/></g>
<g><path style="opacity:1" fill="#f1a187" d="M 91.5,86.5 C 92.2344,87.8775 92.9011,89.3775 93.5,91C 97.7901,91.9225 102.123,92.4225 106.5,92.5C 106.167,94.5 105.833,96.5 105.5,98.5C 104.751,100.246 103.417,101.246 101.5,101.5C 94.1404,99.1469 90.8071,94.1469 91.5,86.5 Z"/></g>
<g><path style="opacity:0.49" fill="#67483d" d="M 198.5,91.5 C 199.906,91.9731 200.573,92.9731 200.5,94.5C 199.094,94.0269 198.427,93.0269 198.5,91.5 Z"/></g>
<g><path style="opacity:1" fill="#282f3d" d="M 111.5,87.5 C 110.859,88.4822 110.193,89.4822 109.5,90.5C 111.103,92.9543 113.103,94.9543 115.5,96.5C 112.771,95.4696 110.104,95.4696 107.5,96.5C 108.105,93.8733 108.605,91.2066 109,88.5C 109.671,87.7476 110.504,87.4142 111.5,87.5 Z"/></g>
<g><path style="opacity:1" fill="#194870" d="M 90.5,84.5 C 91.3382,84.8417 91.6716,85.5084 91.5,86.5C 90.8071,94.1469 94.1404,99.1469 101.5,101.5C 103.417,101.246 104.751,100.246 105.5,98.5C 106.167,97.8333 106.833,97.1667 107.5,96.5C 110.104,95.4696 112.771,95.4696 115.5,96.5C 116.429,97.3149 117.429,98.1482 118.5,99C 123.54,99.6778 128.54,100.511 133.5,101.5C 134.575,103.157 135.242,104.991 135.5,107C 134.561,117.138 134.227,127.304 134.5,137.5C 133.503,154.659 133.17,171.992 133.5,189.5C 120.945,192.395 108.278,193.062 95.5,191.5C 95.8076,189.076 95.4742,186.743 94.5,184.5C 93.5832,183.873 92.5832,183.539 91.5,183.5C 90.8333,183.5 90.1667,183.5 89.5,183.5C 88.7375,182.732 87.7375,182.232 86.5,182C 89.2263,181.818 91.8929,181.318 94.5,180.5C 94.0233,179.522 93.3567,178.689 92.5,178C 88.7984,177.9 85.2984,177.067 82,175.5C 80.8615,175.989 79.6948,176.322 78.5,176.5C 77.5,176.5 76.5,176.5 75.5,176.5C 74.5307,164.67 73.5307,152.837 72.5,141C 72.5296,138.576 72.8629,136.243 73.5,134C 71.3854,134.855 69.052,135.355 66.5,135.5C 66.5,136.833 66.5,138.167 66.5,139.5C 63.8483,143.817 60.515,147.484 56.5,150.5C 56.5,149.833 56.5,149.167 56.5,148.5C 51.8932,144.753 47.0598,141.086 42,137.5C 41.1482,138.571 40.3149,139.571 39.5,140.5C 40.5904,135.432 42.9237,131.099 46.5,127.5C 48.0315,126.323 49.5315,124.989 51,123.5C 51.49,122.207 51.6567,120.873 51.5,119.5C 52.4333,116.63 54.1,114.296 56.5,112.5C 64.3896,104.39 74.0562,99.7233 85.5,98.5C 87.018,104.529 90.3513,109.362 95.5,113C 96.635,113.749 97.635,113.583 98.5,112.5C 99.5804,110.004 100.914,107.67 102.5,105.5C 104.507,107.008 106.174,108.842 107.5,111C 108.635,111.749 109.635,111.583 110.5,110.5C 112.771,107.841 113.938,104.841 114,101.5C 112.638,104.236 110.804,106.569 108.5,108.5C 106.5,106.833 104.5,105.167 102.5,103.5C 100.507,105.666 98.6733,107.999 97,110.5C 92.4879,107.682 88.9879,103.849 86.5,99C 88.0696,96.9409 89.403,94.7742 90.5,92.5C 90.5,89.8333 90.5,87.1667 90.5,84.5 Z"/></g>
<g><path style="opacity:1" fill="#142637" d="M 115.5,96.5 C 121.949,96.9428 127.949,98.6095 133.5,101.5C 128.54,100.511 123.54,99.6778 118.5,99C 117.429,98.1482 116.429,97.3149 115.5,96.5 Z"/></g>
<g><path style="opacity:0.749" fill="#573d34" d="M 200.5,94.5 C 202.696,97.6472 202.862,100.981 201,104.5C 200.329,105.252 199.496,105.586 198.5,105.5C 200.324,102.154 200.99,98.4872 200.5,94.5 Z"/></g>
<g><path style="opacity:0.412" fill="#53392f" d="M 179.5,103.5 C 179.573,105.027 178.906,106.027 177.5,106.5C 177.427,104.973 178.094,103.973 179.5,103.5 Z"/></g>
<g><path style="opacity:1" fill="#153e5b" d="M 133.5,101.5 C 136.431,103.091 139.098,105.091 141.5,107.5C 145.833,113.833 151.167,119.167 157.5,123.5C 158.038,125.117 158.371,126.784 158.5,128.5C 154.641,133.688 150.641,138.855 146.5,144C 147.571,144.852 148.571,145.685 149.5,146.5C 144.152,145.486 139.819,142.819 136.5,138.5C 136.158,137.662 135.492,137.328 134.5,137.5C 134.227,127.304 134.561,117.138 135.5,107C 135.242,104.991 134.575,103.157 133.5,101.5 Z"/></g>
<g><path style="opacity:0.055" fill="#3a2922" d="M 198.5,105.5 C 195.727,106.657 192.727,107.324 189.5,107.5C 192.171,105.882 195.171,105.215 198.5,105.5 Z"/></g>
<g><path style="opacity:0.741" fill="#624539" d="M 177.5,106.5 C 177.573,108.027 176.906,109.027 175.5,109.5C 175.427,107.973 176.094,106.973 177.5,106.5 Z"/></g>
<g><path style="opacity:1" fill="#12395b" d="M 90.5,92.5 C 89.403,94.7742 88.0696,96.9409 86.5,99C 88.9879,103.849 92.4879,107.682 97,110.5C 98.6733,107.999 100.507,105.666 102.5,103.5C 104.5,105.167 106.5,106.833 108.5,108.5C 110.804,106.569 112.638,104.236 114,101.5C 113.938,104.841 112.771,107.841 110.5,110.5C 109.635,111.583 108.635,111.749 107.5,111C 106.174,108.842 104.507,107.008 102.5,105.5C 100.914,107.67 99.5804,110.004 98.5,112.5C 97.635,113.583 96.635,113.749 95.5,113C 90.3513,109.362 87.018,104.529 85.5,98.5C 74.0562,99.7233 64.3896,104.39 56.5,112.5C 58.2199,109.269 60.5532,106.436 63.5,104C 70.9524,100.738 78.619,98.0713 86.5,96C 87.7051,94.6244 89.0384,93.4577 90.5,92.5 Z"/></g>
<g><path style="opacity:0.459" fill="#09141a" d="M 141.5,107.5 C 147.167,112.5 152.5,117.833 157.5,123.5C 151.167,119.167 145.833,113.833 141.5,107.5 Z"/></g>
<g><path style="opacity:0.973" fill="#8a6150" d="M 188.5,108.5 C 188.405,110.786 187.738,112.786 186.5,114.5C 186.025,111.918 186.692,109.918 188.5,108.5 Z"/></g>
<g><path style="opacity:0.447" fill="#5a4035" d="M 175.5,109.5 C 175.573,111.027 174.906,112.027 173.5,112.5C 173.427,110.973 174.094,109.973 175.5,109.5 Z"/></g>
<g><path style="opacity:0.6" fill="#553c34" d="M 173.5,112.5 C 172.581,115.089 170.914,117.089 168.5,118.5C 169.419,115.911 171.086,113.911 173.5,112.5 Z"/></g>
<g><path style="opacity:0.71" fill="#583f38" d="M 168.5,118.5 C 168.262,120.404 167.262,121.738 165.5,122.5C 165.738,120.596 166.738,119.262 168.5,118.5 Z"/></g>
<g><path style="opacity:0.341" fill="#46332e" d="M 165.5,122.5 C 165.573,124.027 164.906,125.027 163.5,125.5C 163.427,123.973 164.094,122.973 165.5,122.5 Z"/></g>
<g><path style="opacity:0.988" fill="#12293f" d="M 51.5,119.5 C 51.6567,120.873 51.49,122.207 51,123.5C 49.5315,124.989 48.0315,126.323 46.5,127.5C 47.3833,124.296 49.0499,121.629 51.5,119.5 Z"/></g>
<g><path style="opacity:0.01" fill="#1e1a1a" d="M 157.5,123.5 C 158.659,124.456 159.826,125.456 161,126.5C 161.902,126.257 162.735,125.923 163.5,125.5C 162.7,127.741 161.034,128.741 158.5,128.5C 158.371,126.784 158.038,125.117 157.5,123.5 Z"/></g>
<g><path style="opacity:1" fill="#eb9b7f" d="M 191.5,87.5 C 191.5,88.8333 191.5,90.1667 191.5,91.5C 193.833,91.5 196.167,91.5 198.5,91.5C 198.427,93.0269 199.094,94.0269 200.5,94.5C 200.99,98.4872 200.324,102.154 198.5,105.5C 195.171,105.215 192.171,105.882 189.5,107.5C 189.5,108.167 189.167,108.5 188.5,108.5C 186.692,109.918 186.025,111.918 186.5,114.5C 182.901,126.369 177.235,137.036 169.5,146.5C 167.153,148.044 164.486,148.711 161.5,148.5C 158.145,148.276 154.812,147.943 151.5,147.5C 150.508,147.672 149.842,147.338 149.5,146.5C 148.571,145.685 147.571,144.852 146.5,144C 150.641,138.855 154.641,133.688 158.5,128.5C 161.034,128.741 162.7,127.741 163.5,125.5C 164.906,125.027 165.573,124.027 165.5,122.5C 167.262,121.738 168.262,120.404 168.5,118.5C 170.914,117.089 172.581,115.089 173.5,112.5C 174.906,112.027 175.573,111.027 175.5,109.5C 176.906,109.027 177.573,108.027 177.5,106.5C 178.906,106.027 179.573,105.027 179.5,103.5C 180.015,101.106 180.681,98.7722 181.5,96.5C 183.587,95.4154 184.92,93.7488 185.5,91.5C 185.328,90.5084 185.662,89.8417 186.5,89.5C 187.458,89.0472 188.292,88.3805 189,87.5C 190.145,80.8638 190.978,80.8638 191.5,87.5 Z"/></g>
<g><path style="opacity:1" fill="#cd9b8f" d="M 56.5,148.5 C 51.6131,146.294 46.9465,143.627 42.5,140.5C 41.3777,141.63 40.0443,142.297 38.5,142.5C 38.3284,141.508 38.6618,140.842 39.5,140.5C 40.3149,139.571 41.1482,138.571 42,137.5C 47.0598,141.086 51.8932,144.753 56.5,148.5 Z"/></g>
<g><path style="opacity:0.643" fill="#513830" d="M 169.5,146.5 C 169.586,147.496 169.252,148.329 168.5,149C 162.542,150.942 156.875,150.442 151.5,147.5C 154.812,147.943 158.145,148.276 161.5,148.5C 164.486,148.711 167.153,148.044 169.5,146.5 Z"/></g>
<g><path style="opacity:1" fill="#ee9d81" d="M 56.5,148.5 C 56.5,149.167 56.5,149.833 56.5,150.5C 56.8782,152.921 57.5448,155.254 58.5,157.5C 58.427,159.027 59.0937,160.027 60.5,160.5C 60.427,162.027 61.0937,163.027 62.5,163.5C 62.427,165.027 63.0937,166.027 64.5,166.5C 64.2407,168.989 65.2407,170.656 67.5,171.5C 68.3382,171.842 68.6716,172.508 68.5,173.5C 68.427,175.027 69.0937,176.027 70.5,176.5C 71.1667,176.5 71.5,176.833 71.5,177.5C 71.9731,178.906 72.9731,179.573 74.5,179.5C 76.8273,179.753 78.8273,179.086 80.5,177.5C 81.3857,178.325 81.719,179.325 81.5,180.5C 82.5,180.5 83.5,180.5 84.5,180.5C 84.5,181.5 84.5,182.5 84.5,183.5C 86.1667,183.5 87.8333,183.5 89.5,183.5C 90.1667,183.5 90.8333,183.5 91.5,183.5C 92.4558,184.659 93.4558,185.826 94.5,187C 94.2645,187.873 93.9312,188.707 93.5,189.5C 90.3091,190.225 87.3091,190.225 84.5,189.5C 85.5487,191.216 86.882,192.549 88.5,193.5C 88.5,193.833 88.5,194.167 88.5,194.5C 85.4007,194.908 83.0674,193.741 81.5,191C 77.8484,190.501 74.1817,190.335 70.5,190.5C 68.8333,188.5 67.1667,186.5 65.5,184.5C 64.7377,182.738 63.4044,181.738 61.5,181.5C 60.7377,179.738 59.4044,178.738 57.5,178.5C 56.5,178.167 55.8333,177.5 55.5,176.5C 54.4154,174.413 52.7488,173.08 50.5,172.5C 49.5,172.167 48.8333,171.5 48.5,170.5C 47.9202,168.251 46.5869,166.585 44.5,165.5C 43.8645,163.205 42.5311,161.539 40.5,160.5C 36.2385,154.815 35.5719,148.815 38.5,142.5C 40.0443,142.297 41.3777,141.63 42.5,140.5C 46.9465,143.627 51.6131,146.294 56.5,148.5 Z"/></g>
<g><path style="opacity:0.404" fill="#533830" d="M 58.5,157.5 C 59.9063,157.973 60.573,158.973 60.5,160.5C 59.0937,160.027 58.427,159.027 58.5,157.5 Z"/></g>
<g><path style="opacity:0.804" fill="#573c34" d="M 40.5,160.5 C 42.5311,161.539 43.8645,163.205 44.5,165.5C 42.457,164.421 41.1237,162.754 40.5,160.5 Z"/></g>
<g><path style="opacity:0.088" fill="#010508" d="M 134.5,137.5 C 135.492,137.328 136.158,137.662 136.5,138.5C 135.833,155.5 135.167,172.5 134.5,189.5C 134.5,172.167 134.5,154.833 134.5,137.5 Z"/></g>
<g><path style="opacity:0.322" fill="#463029" d="M 60.5,160.5 C 61.9063,160.973 62.573,161.973 62.5,163.5C 61.0937,163.027 60.427,162.027 60.5,160.5 Z"/></g>
<g><path style="opacity:0.255" fill="#34251f" d="M 62.5,163.5 C 63.9063,163.973 64.573,164.973 64.5,166.5C 63.0937,166.027 62.427,165.027 62.5,163.5 Z"/></g>
<g><path style="opacity:0.016" fill="#392822" d="M 44.5,165.5 C 46.5869,166.585 47.9202,168.251 48.5,170.5C 46.4131,169.415 45.0798,167.749 44.5,165.5 Z"/></g>
<g><path style="opacity:1" fill="#886051" d="M 64.5,166.5 C 65.8897,167.899 66.8897,169.566 67.5,171.5C 65.2407,170.656 64.2407,168.989 64.5,166.5 Z"/></g>
<g><path style="opacity:0.89" fill="#264059" d="M 134.5,137.5 C 134.5,154.833 134.5,172.167 134.5,189.5C 134.5,189.833 134.5,190.167 134.5,190.5C 129.748,191.667 125.082,192.667 120.5,193.5C 119.5,193.5 118.5,193.5 117.5,193.5C 115.5,193.5 113.5,193.5 111.5,193.5C 107.833,193.5 104.167,193.5 100.5,193.5C 96.9849,192.761 93.6515,192.761 90.5,193.5C 89.8333,193.5 89.1667,193.5 88.5,193.5C 86.882,192.549 85.5487,191.216 84.5,189.5C 87.3091,190.225 90.3091,190.225 93.5,189.5C 93.9312,188.707 94.2645,187.873 94.5,187C 93.4558,185.826 92.4558,184.659 91.5,183.5C 92.5832,183.539 93.5832,183.873 94.5,184.5C 95.4742,186.743 95.8076,189.076 95.5,191.5C 108.278,193.062 120.945,192.395 133.5,189.5C 133.17,171.992 133.503,154.659 134.5,137.5 Z"/></g>
<g><path style="opacity:0.624" fill="#463029" d="M 50.5,172.5 C 52.7488,173.08 54.4154,174.413 55.5,176.5C 53.2512,175.92 51.5846,174.587 50.5,172.5 Z"/></g>
<g><path style="opacity:0.89" fill="#203246" d="M 78.5,176.5 C 77.4097,177.857 76.0764,178.857 74.5,179.5C 72.9731,179.573 71.9731,178.906 71.5,177.5C 72.5,177.5 73.5,177.5 74.5,177.5C 73.5214,164.046 71.688,150.712 69,137.5C 68.2917,138.381 67.4584,139.047 66.5,139.5C 66.5,138.167 66.5,136.833 66.5,135.5C 69.052,135.355 71.3854,134.855 73.5,134C 72.8629,136.243 72.5296,138.576 72.5,141C 73.5307,152.837 74.5307,164.67 75.5,176.5C 76.5,176.5 77.5,176.5 78.5,176.5 Z"/></g>
<g><path style="opacity:0.718" fill="#5b4139" d="M 68.5,173.5 C 69.9063,173.973 70.573,174.973 70.5,176.5C 69.0937,176.027 68.427,175.027 68.5,173.5 Z"/></g>
<g><path style="opacity:0.733" fill="#5a3e34" d="M 57.5,178.5 C 59.4044,178.738 60.7377,179.738 61.5,181.5C 59.5956,181.262 58.2623,180.262 57.5,178.5 Z"/></g>
<g><path style="opacity:1" fill="#d59d8e" d="M 89.5,183.5 C 87.8333,183.5 86.1667,183.5 84.5,183.5C 84.5,182.5 84.5,181.5 84.5,180.5C 83.5,180.5 82.5,180.5 81.5,180.5C 81.719,179.325 81.3857,178.325 80.5,177.5C 78.8273,179.086 76.8273,179.753 74.5,179.5C 76.0764,178.857 77.4097,177.857 78.5,176.5C 79.6948,176.322 80.8615,175.989 82,175.5C 85.2984,177.067 88.7984,177.9 92.5,178C 93.3567,178.689 94.0233,179.522 94.5,180.5C 91.8929,181.318 89.2263,181.818 86.5,182C 87.7375,182.232 88.7375,182.732 89.5,183.5 Z"/></g>
<g><path style="opacity:0.541" fill="#533a31" d="M 61.5,181.5 C 63.4044,181.738 64.7377,182.738 65.5,184.5C 63.5956,184.262 62.2623,183.262 61.5,181.5 Z"/></g>
<g><path style="opacity:1" fill="#211b17" d="M 134.5,190.5 C 133.842,244.294 133.175,297.961 132.5,351.5C 132.5,331.5 132.5,311.5 132.5,291.5C 132.5,260.167 132.5,228.833 132.5,197.5C 128.5,197.833 124.5,198.167 120.5,198.5C 120.5,196.833 120.5,195.167 120.5,193.5C 125.082,192.667 129.748,191.667 134.5,190.5 Z"/></g>
<g><path style="opacity:1" fill="#221e1b" d="M 90.5,193.5 C 93.6515,192.761 96.9849,192.761 100.5,193.5C 100.5,195.5 100.5,197.5 100.5,199.5C 97.4824,199.296 94.4824,198.963 91.5,198.5C 91.7845,196.585 91.4511,194.919 90.5,193.5 Z"/></g>
<g><path style="opacity:1" fill="#2b1f1b" d="M 70.5,190.5 C 74.1817,190.335 77.8484,190.501 81.5,191C 83.0674,193.741 85.4007,194.908 88.5,194.5C 88.5,195.833 88.5,197.167 88.5,198.5C 84.5,198.167 80.5,197.833 76.5,197.5C 76.8064,200.385 76.4731,203.052 75.5,205.5C 75.5,201.167 75.5,196.833 75.5,192.5C 73.4471,192.598 71.7804,191.931 70.5,190.5 Z"/></g>
<g><path style="opacity:1" fill="#94715a" d="M 88.5,193.5 C 89.1667,193.5 89.8333,193.5 90.5,193.5C 91.4511,194.919 91.7845,196.585 91.5,198.5C 94.4824,198.963 97.4824,199.296 100.5,199.5C 104.167,200.833 107.833,200.833 111.5,199.5C 113.5,199.5 115.5,199.5 117.5,199.5C 117.5,197.5 117.5,195.5 117.5,193.5C 118.5,193.5 119.5,193.5 120.5,193.5C 120.5,195.167 120.5,196.833 120.5,198.5C 124.5,198.167 128.5,197.833 132.5,197.5C 132.5,228.833 132.5,260.167 132.5,291.5C 125.706,294.801 119.539,293.801 114,288.5C 111.511,284.763 109.511,280.763 108,276.5C 107.828,270.319 107.328,264.319 106.5,258.5C 106.667,246.829 106.5,235.162 106,223.5C 104.708,222.209 103.542,222.209 102.5,223.5C 101.883,223.611 101.383,223.944 101,224.5C 100.503,227.146 100.336,229.813 100.5,232.5C 99.5718,246.925 97.9051,261.259 95.5,275.5C 94.4224,283.471 90.4224,289.638 83.5,294C 81.5,294.667 79.5,294.667 77.5,294C 74.7272,291.617 72.5605,288.783 71,285.5C 70.5006,279.843 70.3339,274.176 70.5,268.5C 71.507,247.426 73.1737,226.426 75.5,205.5C 76.4731,203.052 76.8064,200.385 76.5,197.5C 80.5,197.833 84.5,198.167 88.5,198.5C 88.5,197.167 88.5,195.833 88.5,194.5C 88.5,194.167 88.5,193.833 88.5,193.5 Z"/></g>
<g><path style="opacity:1" fill="#231a15" d="M 111.5,193.5 C 113.5,193.5 115.5,193.5 117.5,193.5C 117.5,195.5 117.5,197.5 117.5,199.5C 115.5,199.5 113.5,199.5 111.5,199.5C 111.5,197.5 111.5,195.5 111.5,193.5 Z"/></g>
<g><path style="opacity:1" fill="#b2ada2" d="M 100.5,193.5 C 104.167,193.5 107.833,193.5 111.5,193.5C 111.5,195.5 111.5,197.5 111.5,199.5C 107.833,200.833 104.167,200.833 100.5,199.5C 100.5,197.5 100.5,195.5 100.5,193.5 Z"/></g>
<g><path style="opacity:0.749" fill="#3b2f27" d="M 102.5,223.5 C 102.142,226.689 101.475,229.689 100.5,232.5C 100.336,229.813 100.503,227.146 101,224.5C 101.383,223.944 101.883,223.611 102.5,223.5 Z"/></g>
<g><path style="opacity:0.694" fill="#352a22" d="M 102.5,223.5 C 103.542,222.209 104.708,222.209 106,223.5C 106.5,235.162 106.667,246.829 106.5,258.5C 105.67,248.341 105.17,238.008 105,227.5C 104.878,225.563 104.045,224.23 102.5,223.5 Z"/></g>
<g><path style="opacity:1" fill="#765a49" d="M 106.5,258.5 C 107.328,264.319 107.828,270.319 108,276.5C 109.511,280.763 111.511,284.763 114,288.5C 119.539,293.801 125.706,294.801 132.5,291.5C 132.5,311.5 132.5,331.5 132.5,351.5C 124.726,355.32 117.059,355.32 109.5,351.5C 108.815,343.184 108.482,334.851 108.5,326.5C 108.333,314.827 108,303.161 107.5,291.5C 106.751,280.516 106.417,269.516 106.5,258.5 Z"/></g>
<g><path style="opacity:0.08" fill="#1d1b19" d="M 100.5,283.5 C 99.5,283.5 98.5,283.5 97.5,283.5C 97.5,285.5 97.5,287.5 97.5,289.5C 96.2502,289.577 95.4169,290.244 95,291.5C 94.9244,295.796 94.0911,299.796 92.5,303.5C 92.7899,296.984 93.4565,290.65 94.5,284.5C 94.369,285.239 94.5357,285.906 95,286.5C 95.5668,282.757 97.4002,281.757 100.5,283.5 Z"/></g>
<g><path style="opacity:0.706" fill="#817b7a" d="M 100.5,283.5 C 101.833,283.5 102.5,284.167 102.5,285.5C 102.5,286.833 102.5,288.167 102.5,289.5C 100.833,289.5 99.1667,289.5 97.5,289.5C 97.5,287.5 97.5,285.5 97.5,283.5C 98.5,283.5 99.5,283.5 100.5,283.5 Z"/></g>
<g><path style="opacity:1" fill="#d7cccb" d="M 98.5,284.5 C 102.31,285.754 102.31,286.754 98.5,287.5C 98.5,286.5 98.5,285.5 98.5,284.5 Z"/></g>
<g><path style="opacity:0.114" fill="#181617" d="M 102.5,285.5 C 103.451,286.919 103.784,288.585 103.5,290.5C 101.265,290.795 99.2646,290.461 97.5,289.5C 99.1667,289.5 100.833,289.5 102.5,289.5C 102.5,288.167 102.5,286.833 102.5,285.5 Z"/></g>
<g><path style="opacity:1" fill="#765a49" d="M 70.5,268.5 C 70.3339,274.176 70.5006,279.843 71,285.5C 72.5605,288.783 74.7272,291.617 77.5,294C 79.5,294.667 81.5,294.667 83.5,294C 90.4224,289.638 94.4224,283.471 95.5,275.5C 95.6323,278.57 95.299,281.57 94.5,284.5C 93.4565,290.65 92.7899,296.984 92.5,303.5C 90.5637,305.115 89.5637,307.282 89.5,310C 87.9418,318.765 87.2751,327.598 87.5,336.5C 86.2751,341.29 85.6084,346.29 85.5,351.5C 79.0664,353.82 72.3997,354.153 65.5,352.5C 65.5,351.833 65.1667,351.5 64.5,351.5C 65.9415,340.553 66.6082,329.553 66.5,318.5C 67.1797,301.633 68.513,284.966 70.5,268.5 Z"/></g>
<g><path style="opacity:0.133" fill="#1f1c1a" d="M 107.5,291.5 C 108,303.161 108.333,314.827 108.5,326.5C 108.036,315.852 106.703,305.185 104.5,294.5C 104.879,292.787 105.879,291.787 107.5,291.5 Z"/></g>
<g><path style="opacity:0.997" fill="#4e4037" d="M 92.5,303.5 C 90.9311,314.647 89.2644,325.647 87.5,336.5C 87.2751,327.598 87.9418,318.765 89.5,310C 89.5637,307.282 90.5637,305.115 92.5,303.5 Z"/></g>
<g><path style="opacity:0.945" fill="#342c25" d="M 66.5,318.5 C 66.6082,329.553 65.9415,340.553 64.5,351.5C 63.8442,350.378 63.5108,349.045 63.5,347.5C 64.5487,337.685 65.5487,328.019 66.5,318.5 Z"/></g>
<g><path style="opacity:0.013" fill="#130f0d" d="M 87.5,336.5 C 87.6975,341.75 87.0308,346.75 85.5,351.5C 85.6084,346.29 86.2751,341.29 87.5,336.5 Z"/></g>
<g><path style="opacity:1" fill="#231d19" d="M 109.5,351.5 C 117.059,355.32 124.726,355.32 132.5,351.5C 133.29,352.794 134.29,353.961 135.5,355C 139.558,355.34 143.558,356.007 147.5,357C 149.32,357.2 150.653,358.034 151.5,359.5C 152.5,359.833 153.167,360.5 153.5,361.5C 153.5,362.833 153.5,364.167 153.5,365.5C 139.167,365.5 124.833,365.5 110.5,365.5C 109.793,362.214 109.46,358.881 109.5,355.5C 109.5,354.167 109.5,352.833 109.5,351.5 Z"/></g>
<g><path style="opacity:1" fill="#443d39" d="M 151.5,359.5 C 151.414,360.496 151.748,361.329 152.5,362C 147.405,363.332 143.072,362.165 139.5,358.5C 143.522,357.764 147.522,358.097 151.5,359.5 Z"/></g>
<g><path style="opacity:1" fill="#251f1b" d="M 85.5,351.5 C 85.4431,352.609 85.1098,353.609 84.5,354.5C 84.4431,355.609 84.1098,356.609 83.5,357.5C 84.4972,357.47 85.1639,357.97 85.5,359C 84.6138,361.112 84.6138,363.278 85.5,365.5C 78.5,365.5 71.5,365.5 64.5,365.5C 64.0084,361.543 64.6751,357.877 66.5,354.5C 66.1373,353.817 65.8039,353.15 65.5,352.5C 72.3997,354.153 79.0664,353.82 85.5,351.5 Z"/></g>
<g><path style="opacity:1" fill="#0e0b0a" d="M 109.5,355.5 C 109.46,358.881 109.793,362.214 110.5,365.5C 124.833,365.5 139.167,365.5 153.5,365.5C 153.5,364.167 153.5,362.833 153.5,361.5C 154.473,363.948 154.806,366.615 154.5,369.5C 144.899,369.966 135.399,369.299 126,367.5C 120.69,369.341 115.19,370.008 109.5,369.5C 108.625,364.665 108.625,359.998 109.5,355.5 Z"/></g>
<g><path style="opacity:0.706" fill="#0d0c0a" d="M 64.5,351.5 C 65.1667,351.5 65.5,351.833 65.5,352.5C 65.8039,353.15 66.1373,353.817 66.5,354.5C 64.6751,357.877 64.0084,361.543 64.5,365.5C 71.5,365.5 78.5,365.5 85.5,365.5C 84.6138,363.278 84.6138,361.112 85.5,359C 85.1639,357.97 84.4972,357.47 83.5,357.5C 84.1098,356.609 84.4431,355.609 84.5,354.5C 87.3315,358.98 87.9981,363.813 86.5,369C 78.5069,369.5 70.5069,369.666 62.5,369.5C 62.2683,363.378 62.9349,357.378 64.5,351.5 Z"/></g>
<g><path style="opacity:1" fill="#473e39" d="M 83.5,357.5 C 83.6399,359.124 82.9733,360.29 81.5,361C 76.8333,361.667 72.1667,361.667 67.5,361C 66.0745,359.286 66.4078,357.953 68.5,357C 73.5374,356.337 78.5374,356.504 83.5,357.5 Z"/></g>
</svg>
